<svg xmlns="http://www.w3.org/2000/svg" xmlns:xlink="http://www.w3.org/1999/xlink" preserveAspectRatio="xMidYMid" width="42" height="42" viewBox="0 0 413 448">
  <defs>
    <style>
      .cls-1, .cls-3 {
        fill: #000;
      }

      .cls-1, .cls-2 {
        fill-rule: evenodd;
      }

      .cls-2 {
        fill: #fff;
      }
    </style>
  </defs>
  <g>
    <path d="M28.000,19.000 L384.000,19.000 L384.000,383.000 C384.000,418.898 354.898,448.000 319.000,448.000 L93.000,448.000 C57.102,448.000 28.000,418.898 28.000,383.000 L28.000,19.000 Z" class="cls-1"/>
    <g>
      <path d="M58.000,72.000 L76.000,72.000 L76.000,388.000 L58.000,388.000 L58.000,72.000 Z" class="cls-2"/>
      <path d="M126.000,72.000 L144.000,72.000 L144.000,388.000 L126.000,388.000 L126.000,72.000 Z" class="cls-2"/>
      <path d="M194.000,72.000 L212.000,72.000 L212.000,388.000 L194.000,388.000 L194.000,72.000 Z" class="cls-2"/>
      <path d="M262.000,72.000 L280.000,72.000 L280.000,388.000 L262.000,388.000 L262.000,72.000 Z" class="cls-2"/>
      <path d="M330.000,72.000 L348.000,72.000 L348.000,388.000 L330.000,388.000 L330.000,72.000 Z" class="cls-2"/>
    </g>
    <rect width="413" height="38" rx="5" ry="5" class="cls-3"/>
  </g>
</svg>
